<?xml version="1.0" standalone="no"?><!DOCTYPE svg PUBLIC "-//W3C//DTD SVG 1.1//EN" "http://www.w3.org/Graphics/SVG/1.1/DTD/svg11.dtd"><svg t="1782551469487" class="icon" viewBox="0 0 1024 1024" version="1.1" xmlns="http://www.w3.org/2000/svg" p-id="3507" xmlns:xlink="http://www.w3.org/1999/xlink" width="24" height="24"><path d="M837.8 145.5h-80.2c21.7 0 39.5 17.8 39.5 39.5v530.7c0 89.6-73.3 162.9-162.9 162.9h203.6c22.4 0 40.7-18.3 40.7-40.7V186.2c0-22.4-18.3-40.7-40.7-40.7z" fill="#FBDCDA" p-id="3508"></path><path d="M878.5 64H389.8c-44.8 0-81.5 36.7-81.5 81.5V960h570.2c44.8 0 81.5-36.7 81.5-81.5v-733c0-44.8-36.7-81.5-81.5-81.5z m0 773.8c0 22.4-18.3 40.7-40.7 40.7h-448V186.2c0-22.4 18.3-40.7 40.7-40.7h407.3c22.4 0 40.7 18.3 40.7 40.7v651.6z" fill="#EA3E31" p-id="3509"></path><path d="M199.3 389.8h190.5v-81.5H145.5c-45 0-81.5 36.5-81.5 81.5v488.7c0 45 36.5 81.5 81.5 81.5h244.4v-81.5H199.3c-29.8 0-53.9-24.1-53.9-53.9v-381c0.1-29.7 24.2-53.8 53.9-53.8zM674.9 389.8H512c-22.4 0-40.7-18.3-40.7-40.7 0-22.4 18.3-40.7 40.7-40.7h162.9c22.4 0 40.7 18.3 40.7 40.7 0 22.4-18.3 40.7-40.7 40.7zM756.4 552.7H512c-22.4 0-40.7-18.3-40.7-40.7 0-22.4 18.3-40.7 40.7-40.7h244.4c22.4 0 40.7 18.3 40.7 40.7 0 22.4-18.3 40.7-40.7 40.7zM756.4 715.6H512c-22.4 0-40.7-18.3-40.7-40.7 0-22.4 18.3-40.7 40.7-40.7h244.4c22.4 0 40.7 18.3 40.7 40.7 0 22.4-18.3 40.7-40.7 40.7z" fill="#EA3E31" p-id="3510"></path></svg>